Coordinates
version=1
nRows=15
nColumns=34
inDegrees=yes

Units are S.I. units (second, meters, Newtons, ...)
If the header above contains a line with 'inDegrees', this indicates whether rotational values are in degrees (yes) or radians (no).

endheader
time	pelvis_tilt	pelvis_list	pelvis_rotation	pelvis_tx	pelvis_ty	pelvis_tz	hip_flexion_r	hip_adduction_r	hip_rotation_r	knee_angle_r	ankle_angle_r	subtalar_angle_r	mtp_angle_r	hip_flexion_l	hip_adduction_l	hip_rotation_l	knee_angle_l	ankle_angle_l	subtalar_angle_l	mtp_angle_l	lumbar_extension	lumbar_bending	lumbar_rotation	arm_flex_r	arm_add_r	arm_rot_r	elbow_flex_r	pro_sup_r	arm_flex_l	arm_add_l	arm_rot_l	elbow_flex_l	pro_sup_l
     10.48333330	      6.06313784	    -11.06364923	      4.74944736	      0.28778549	      0.86701407	     -0.16262787	     23.24452887	      5.94121254	    -10.19043422	      9.33986712	    -25.32289252	     -0.70313507	      0.00000000	      0.43892122	     -5.22415536	      4.01393529	     15.41471263	      7.27619752	    -10.27310273	      0.00000000	    -12.66213032	      2.04667091	     -6.81301549	     78.10655650	      3.38725010	     75.81659796	    112.26996455	     90.68549327	     95.89438669	     -2.39962316	     82.97096653	    116.94585754	     80.65172761
     10.50000000	      6.21325786	    -11.14501806	      4.88877187	      0.28844849	      0.86259807	     -0.16204223	     23.44213300	      5.92201959	    -10.45177409	      9.41436280	    -25.12850438	     -0.61307574	      0.00000000	      1.28580136	     -5.05894281	      5.70282671	     17.02828128	      6.65833239	    -12.97661752	      0.00000000	    -13.10259803	      1.94472849	     -6.65028493	     78.79821146	      3.29079666	     76.26111090	    112.37381100	     90.73697859	     96.82814594	     -1.95030682	     83.30011028	    117.74530637	     80.68785432
     10.51666670	      6.40699033	    -11.30894850	      4.79541974	      0.28601377	      0.86271819	     -0.16202495	     23.59947335	      6.06247597	    -10.39166352	      9.35889789	    -25.28339448	     -0.53316244	      0.00000000	      1.92668475	     -5.10233855	      6.25449363	     18.51523023	      6.84633119	    -13.60276741	      0.00000000	    -13.65454682	      2.00263289	     -6.04710105	     79.48788223	      2.98340589	     76.28445461	    111.68800285	     90.74299111	     97.47019562	     -1.49730110	     82.97015618	    118.01433833	     80.68101170
     10.53333330	      6.74945429	    -11.41084220	      4.97178799	      0.28312346	      0.86481343	     -0.16277430	     23.56938782	      6.06120359	    -10.57568380	      9.37073830	    -26.04050096	     -0.71694807	      0.00000000	      2.39201336	     -4.95656960	      7.48718509	     19.85830396	      6.37151901	    -15.14094351	      0.00000000	    -14.25587855	      2.06240629	     -6.27551737	     79.86518132	      3.00409284	     76.63205448	    111.51019649	     90.76447383	     97.79263693	     -1.76589996	     83.27957577	    117.35282455	     80.65667094
     10.55000000	      7.04966235	    -11.48766847	      4.97379019	      0.28210326	      0.86146189	     -0.16194585	     23.74409767	      6.13350532	    -10.53366731	      9.45333573	    -26.43253929	     -0.78758342	      0.00000000	      2.74284024	     -4.87678456	      8.02430490	     21.10241533	      6.38089544	    -15.94493053	      0.00000000	    -14.74092541	      2.03828208	     -6.05203897	     80.24771307	      2.54729619	     76.37393319	    110.92581680	     90.74260564	     98.11852604	     -1.94478202	     83.41831801	    117.10464817	     80.63626376
     10.56666670	      7.36190679	    -11.45805580	      5.06008909	      0.28002489	      0.86007496	     -0.16276086	     23.99147916	      6.00919554	    -10.63804866	      9.68802623	    -26.35882390	     -1.52939849	      0.00000000	      3.22663039	     -4.50239332	      9.27045792	     22.34083273	      6.00876643	    -17.98247312	      0.00000000	    -15.54480505	      1.90095890	     -6.29587662	     80.62772903	      2.84102524	     75.68990133	    111.02553112	     90.70808763	     98.92915627	     -2.04243225	     84.20178330	    116.54702669	     80.58634208
     10.58333330	      7.69272705	    -11.52501911	      5.08367649	      0.28134961	      0.85613180	     -0.16442904	     24.55560686	      5.96863837	    -10.57880724	     10.56056052	    -26.35611643	     -1.99308031	      0.00000000	      3.60281835	     -4.31715203	      9.77024088	     23.57915889	      7.11368832	    -19.00685111	      0.00000000	    -16.30379206	      2.02139202	     -6.13951157	     81.25078417	      2.91499458	     75.04564971	    110.91882002	     90.68134301	     99.31605592	     -2.81377439	     84.15944444	    115.86922302	     80.54883366
     10.60000000	      8.15384655	    -11.51814299	      5.51166956	      0.28413554	      0.85305787	     -0.16639618	     24.75733078	      5.72537361	    -10.30744675	     11.24849647	    -26.58079270	     -2.99431165	      0.00000000	      3.88532114	     -4.02774599	     10.81940558	     24.87680592	      8.05620006	    -20.27258302	      0.00000000	    -16.87066723	      2.08855300	     -5.97152955	     81.34010668	      2.75272809	     74.26806110	    110.04874636	     90.61831490	     99.53186788	     -2.76215281	     84.04152177	    115.64705085	     80.47111013
     10.61666670	      8.55945287	    -11.36437666	      5.70864218	      0.28081651	      0.85163045	     -0.16630884	     25.07104956	      5.48296042	    -10.11018927	     11.70315866	    -26.92768967	     -3.24688287	      0.00000000	      4.26543236	     -3.59616950	     11.50401114	     26.16181954	      9.05739687	    -21.25355509	      0.00000000	    -17.49962535	      1.96600472	     -5.52897129	     81.74658724	      2.57824759	     73.87218359	    109.81898349	     90.59038683	     99.60411207	     -3.06220541	     84.15351892	    115.42777186	     80.44526992
     10.63333330	      8.92637883	    -11.31251059	      5.97812777	      0.27768260	      0.84959815	     -0.16707737	     25.52158707	      5.26651531	     -9.99613834	     12.19005305	    -26.89762467	     -3.91248627	      0.00000000	      4.90915426	     -3.21007001	     12.33146044	     27.72531126	      9.76725865	    -22.21541561	      0.00000000	    -18.25183104	      1.98061413	     -5.40122486	     82.03279871	      2.33904950	     73.96066718	    110.12797528	     90.60397922	     99.84405452	     -3.03965623	     84.02459995	    115.27574824	     80.40603177
     10.65000000	      9.15930724	    -11.25539769	      6.04970784	      0.27489270	      0.84424752	     -0.16682374	     26.25316706	      5.11311501	     -9.70682119	     12.59052940	    -26.53695161	     -4.59573283	      0.00000000	      5.87499731	     -2.75790075	     12.99125738	     29.58420483	      9.66088435	    -23.40315605	      0.00000000	    -19.20588399	      1.84877257	     -5.08341744	     83.02910792	      1.82974367	     73.89808072	    111.81083071	     90.68166039	    100.56713569	     -2.51540645	     83.72051458	    115.12205348	     80.31652547
     10.66666670	      9.42368231	    -11.23127362	      6.24429085	      0.27441940	      0.84057302	     -0.16650204	     26.91844651	      4.97216651	     -9.40097076	     13.03259778	    -26.10553662	     -4.83302114	      0.00000000	      6.72544843	     -2.45862791	     13.48255605	     31.56954756	     10.28263558	    -23.93709041	      0.00000000	    -20.06116436	      1.77057782	     -4.69245848	     84.03052492	      1.33439794	     73.47139224	    111.81283163	     90.69975045	    101.19147338	     -1.90267267	     83.22150267	    115.41612023	     80.28990606
     10.68333330	      9.41944978	    -11.14366189	      6.45988626	      0.27424464	      0.84082949	     -0.16739268	     27.65263464	      4.74461007	     -9.32546364	     13.16404237	    -25.23436327	     -4.91669408	      0.00000000	      7.62787687	     -2.02462103	     14.05018384	     33.17287789	     10.64489033	    -24.51383103	      0.00000000	    -20.81183739	      1.48760622	     -4.50061434	     85.12332772	      0.72801295	     74.05839956	    113.38168705	     90.84914793	    101.83568656	     -1.13934026	     83.09660599	    115.58422052	     80.25258703
     10.70000000	      9.58509488	    -11.23091488	      6.62884359	      0.27638129	      0.83704707	     -0.16800490	     28.20081864	      4.74493230	     -9.12776342	     13.40420861	    -24.87490163	     -5.07258621	      0.00000000	      8.17512762	     -1.90414153	     14.43947741	     34.64300527	     11.13310409	    -24.93423134	      0.00000000	    -21.70973034	      1.46885188	     -4.67296166	     85.97781513	      1.04395225	     74.12383964	    113.93496636	     90.90025353	    102.28376427	     -2.06218408	     83.20453299	    114.26592234	     80.21663403
     10.71666670	     10.00192775	    -11.11805489	      6.88691096	      0.27268807	      0.83283059	     -0.16805038	     28.65476300	      4.42768303	     -8.93173510	     14.06006193	    -25.07797796	     -5.48615530	      0.00000000	      9.00845584	     -1.55147364	     14.70697033	     36.71511287	     11.46545560	    -25.37551677	      0.00000000	    -22.82080703	      1.30990337	     -5.07382589	     86.85118003	      1.36883393	     74.59507767	    115.19244881	     91.03292023	    102.90042568	     -2.70765877	     83.47145477	    113.21317492	     80.17025517
